<?xml version="1.0" encoding="UTF-8" standalone="no"?>
<!-- Created with Inkscape (http://www.inkscape.org/) -->

<svg
   width="210mm"
   height="297mm"
   viewBox="0 0 210 297"
   version="1.1"
   id="svg5"
   xml:space="preserve"
   inkscape:version="1.2.2 (732a01da63, 2022-12-09)"
   sodipodi:docname="JMR.svg"
   xmlns:inkscape="http://www.inkscape.org/namespaces/inkscape"
   xmlns:sodipodi="http://sodipodi.sourceforge.net/DTD/sodipodi-0.dtd"
   xmlns="http://www.w3.org/2000/svg"
   xmlns:svg="http://www.w3.org/2000/svg"><sodipodi:namedview
     id="namedview7"
     pagecolor="#505050"
     bordercolor="#eeeeee"
     borderopacity="1"
     inkscape:showpageshadow="0"
     inkscape:pageopacity="0"
     inkscape:pagecheckerboard="0"
     inkscape:deskcolor="#505050"
     inkscape:document-units="mm"
     showgrid="false"
     inkscape:zoom="0.5"
     inkscape:cx="-265"
     inkscape:cy="560"
     inkscape:window-width="2560"
     inkscape:window-height="1369"
     inkscape:window-x="3352"
     inkscape:window-y="-8"
     inkscape:window-maximized="1"
     inkscape:current-layer="layer1" /><defs
     id="defs2"><inkscape:path-effect
       effect="powermask"
       id="path-effect5683"
       is_visible="true"
       lpeversion="1"
       uri="#mask-powermask-path-effect5683"
       invert="false"
       hide_mask="false"
       background="true"
       background_color="#ffffffff" /><rect
       x="83.066457"
       y="638.7137"
       width="374.92158"
       height="502.88882"
       id="rect241" /><rect
       x="83.06646"
       y="638.71368"
       width="374.92157"
       height="502.88882"
       id="rect241-3" /><mask
       maskUnits="userSpaceOnUse"
       id="mask-powermask-path-effect5683"><path
         id="mask-powermask-path-effect5683_box"
         style="fill:#ffffff;fill-opacity:1"
         d="M -8.5202544,135.38263 H 12.397453 v 30.31042 H -8.5202544 Z" /><path
         style="opacity:1;fill:#000000;fill-opacity:1;stroke-width:0.264583"
         id="path5681"
         sodipodi:type="arc"
         sodipodi:cx="89.619331"
         sodipodi:cy="107.28027"
         sodipodi:rx="2.0257161"
         sodipodi:ry="2.0257161"
         sodipodi:start="0"
         sodipodi:end="6.2822902"
         sodipodi:arc-type="slice"
         d="m 91.645047,107.28027 a 2.0257161,2.0257161 0 0 1 -2.025262,2.02572 2.0257161,2.0257161 0 0 1 -2.02617,-2.02481 2.0257161,2.0257161 0 0 1 2.024356,-2.02662 2.0257161,2.0257161 0 0 1 2.027076,2.0239 l -2.025716,0.002 z"
         transform="rotate(39.789769)" /></mask><filter
       id="mask-powermask-path-effect5683_inverse"
       inkscape:label="filtermask-powermask-path-effect5683"
       style="color-interpolation-filters:sRGB"
       height="100"
       width="100"
       x="-50"
       y="-50"><feColorMatrix
         id="mask-powermask-path-effect5683_primitive1"
         values="1"
         type="saturate"
         result="fbSourceGraphic" /><feColorMatrix
         id="mask-powermask-path-effect5683_primitive2"
         values="-1 0 0 0 1 0 -1 0 0 1 0 0 -1 0 1 0 0 0 1 0 "
         in="fbSourceGraphic" /></filter></defs><g
     inkscape:label="Layer 1"
     inkscape:groupmode="layer"
     id="layer1"><g
       style="fill:#00afec;fill-opacity:1"
       id="g131"
       transform="matrix(1.2334703,0,0,1.4275472,-23.287554,0.02376993)"><path
         d="m 188.911,28.331 c -0.556,-1.615 -2.075,-2.7 -3.783,-2.7 h -37.134 l 11.192,-19.65 c 1.094,-1.92 0.424,-4.362 -1.496,-5.455 -1.92,-1.095 -4.361,-0.423 -5.455,1.496 L 138.789,25.631 H 22.917 c -1.708,0 -3.228,1.085 -3.783,2.7 -0.555,1.615 -0.022,3.405 1.325,4.455 l 79.563,61.987 v 90.211 l -43.854,15.283 c -1.843,0.643 -2.953,2.521 -2.628,4.445 0.326,1.924 1.993,3.332 3.944,3.332 h 93.074 c 0.007,10e-4 0.015,10e-4 0.02,0 2.21,0 4,-1.791 4,-4 0,-1.834 -1.234,-3.38 -2.918,-3.853 L 108.022,184.984 V 94.773 l 79.563,-61.987 c 1.349,-1.05 1.881,-2.84 1.326,-4.455 z M 50.999,46.438 34.56,33.631 h 99.672 l -7.294,12.808 H 50.999 Z m 106.048,0 h -20.903 l 7.294,-12.808 h 30.048 z"
         id="path123"
         style="fill:#00afec;fill-opacity:1" /></g><path
       style="fill:#000000;fill-opacity:1;stroke-width:0.264583"
       d="m 91.160956,178.86524 -1.47485,-1.15445"
       id="path1242" /><path
       style="fill:#cccccc;fill-opacity:1;stroke-width:0.265;stroke-dasharray:none"
       id="path2865"
       transform="rotate(-39.789769)"
       inkscape:transform-center-x="-0.396875"
       inkscape:transform-center-y="-0.13229167"
       mask="url(#mask-powermask-path-effect5683)"
       inkscape:path-effect="#path-effect5683"
       sodipodi:type="arc"
       sodipodi:cx="1.9385993"
       sodipodi:cy="150.53784"
       sodipodi:rx="9.4588537"
       sodipodi:ry="14.155209"
       d="m 11.397453,150.53784 a 9.4588537,14.155209 0 0 1 -9.4588537,14.15521 9.4588537,14.155209 0 0 1 -9.4588537,-14.15521 9.4588537,14.155209 0 0 1 9.4588537,-14.15521 9.4588537,14.155209 0 0 1 9.4588537,14.15521 z" /></g></svg>
