<?xml version="1.0" encoding="UTF-8" standalone="no"?>
<!-- Created with Inkscape (http://www.inkscape.org/) -->

<svg
   xmlns:dc="http://purl.org/dc/elements/1.1/"
   xmlns:cc="http://creativecommons.org/ns#"
   xmlns:rdf="http://www.w3.org/1999/02/22-rdf-syntax-ns#"
   xmlns:svg="http://www.w3.org/2000/svg"
   xmlns="http://www.w3.org/2000/svg"
   xmlns:sodipodi="http://sodipodi.sourceforge.net/DTD/sodipodi-0.dtd"
   xmlns:inkscape="http://www.inkscape.org/namespaces/inkscape"
   width="32"
   height="32"
   viewBox="0 0 8.4666665 8.4666669"
   version="1.1"
   id="svg8"
   inkscape:version="0.92.4 (5da689c313, 2019-01-14)"
   sodipodi:docname="glossary-icon.svg">
  <defs
     id="defs2" />
  <sodipodi:namedview
     id="base"
     pagecolor="#ffffff"
     bordercolor="#666666"
     borderopacity="1.0"
     inkscape:pageopacity="0.0"
     inkscape:pageshadow="2"
     inkscape:zoom="11.2"
     inkscape:cx="29.550169"
     inkscape:cy="44.699201"
     inkscape:document-units="mm"
     inkscape:current-layer="g817"
     showgrid="false"
     units="px"
     inkscape:pagecheckerboard="true"
     inkscape:window-width="2560"
     inkscape:window-height="1377"
     inkscape:window-x="-8"
     inkscape:window-y="-8"
     inkscape:window-maximized="1" />
  <metadata
     id="metadata5">
    <rdf:RDF>
      <cc:Work
         rdf:about="">
        <dc:format>image/svg+xml</dc:format>
        <dc:type
           rdf:resource="http://purl.org/dc/dcmitype/StillImage" />
        <dc:title></dc:title>
      </cc:Work>
    </rdf:RDF>
  </metadata>
  <g
     inkscape:label="Layer 1"
     inkscape:groupmode="layer"
     id="layer1"
     transform="translate(0,-288.53332)">
    <g
       id="g817"
       transform="matrix(0.01322917,0,0,-0.01322917,-2.5400017,298.69332)">
      <g
         id="g831"
         transform="matrix(0.6983373,0,0,0.6983373,154.80048,135.14478)">
        <path
           id="path829"
           d="M 225,721 215,711 136,633 V 263 l 89,-88 h 574 l 88,88 v 370 l -88,88 z m 28,-68 h 518 l 48,-48 V 291 L 771,243 H 253 l -48,48 V 605 Z M 311,609 263,560 375,448 263,336 311,287 472,448 Z M 582,597 480,323 544,300 646,573 Z m 137,0 -103,-274 64,-23 103,273 z"
           inkscape:connector-curvature="0"
           style="fill:currentColor" />
      </g>
    </g>
  </g>
</svg>
