<?xml version="1.0" standalone="no"?>
<!DOCTYPE svg PUBLIC "-//W3C//DTD SVG 20010904//EN"
 "http://www.w3.org/TR/2001/REC-SVG-20010904/DTD/svg10.dtd">
<svg version="1.0" xmlns="http://www.w3.org/2000/svg"
 width="676.000000pt" height="677.000000pt" viewBox="0 0 676.000000 677.000000"
 preserveAspectRatio="xMidYMid meet">

<g transform="translate(0.000000,677.000000) scale(0.100000,-0.100000)"
fill="#FF0004" stroke="none">
<path d="M3346 6757 c-16 -11 -49 -195 -201 -1110 -101 -603 -186 -1104 -189
-1115 -8 -24 -50 -44 -73 -35 -25 9 -673 472 -673 481 0 14 199 135 328 198
l132 65 0 37 c0 41 -54 366 -65 395 -19 46 -81 33 -280 -62 -176 -84 -329
-181 -511 -324 -22 -17 -25 -15 -386 241 -199 143 -372 262 -384 266 -28 9
-67 -23 -67 -55 0 -16 90 -149 262 -391 l262 -367 -74 -98 c-106 -139 -178
-257 -257 -418 -73 -150 -120 -271 -120 -310 0 -15 9 -30 22 -39 13 -8 110
-28 216 -46 165 -27 196 -30 213 -18 11 7 39 59 63 115 47 110 84 180 153 286
42 66 45 68 80 65 36 -3 42 -9 255 -308 120 -168 221 -316 225 -328 4 -17 -1
-30 -18 -47 -22 -21 -119 -39 -1123 -206 -1151 -191 -1136 -188 -1136 -237 0
-52 -36 -44 1126 -238 604 -101 1109 -188 1121 -193 27 -12 39 -52 24 -79 -20
-38 -423 -597 -439 -610 -25 -19 -61 -14 -85 12 -32 35 -138 226 -183 330 -24
55 -46 92 -59 97 -13 6 -84 -5 -220 -34 -255 -54 -249 -47 -186 -204 80 -200
204 -415 343 -595 l60 -77 -262 -367 c-167 -233 -263 -375 -263 -390 0 -13 6
-31 13 -39 31 -38 60 -21 435 246 l366 260 77 -59 c178 -138 401 -266 601
-346 98 -39 133 -41 150 -8 5 9 23 104 41 211 23 140 29 199 22 215 -6 13 -45
36 -108 64 -129 57 -304 161 -317 189 -22 49 -7 62 305 285 167 118 309 218
316 222 20 12 60 -2 72 -23 5 -10 91 -507 190 -1102 99 -596 183 -1092 186
-1102 14 -46 82 -57 104 -17 5 10 91 506 190 1101 99 596 183 1092 186 1102 3
10 17 25 30 34 20 13 30 14 50 4 55 -25 616 -434 626 -457 8 -18 7 -29 -5 -48
-21 -31 -156 -113 -302 -181 -63 -30 -118 -63 -124 -73 -7 -14 -1 -74 23 -216
27 -162 37 -201 55 -219 l21 -22 68 23 c180 63 432 203 620 344 60 45 109 75
115 71 7 -4 171 -121 366 -260 253 -181 362 -253 381 -253 30 0 60 27 60 55 0
10 -119 184 -265 388 l-264 369 53 67 c148 186 263 385 357 619 33 84 36 113
12 135 -25 21 -400 99 -423 87 -9 -5 -56 -87 -103 -182 -106 -211 -145 -268
-186 -268 -37 0 -41 5 -290 353 -198 278 -212 305 -173 339 12 11 346 71 1112
198 630 105 1105 188 1118 196 27 18 30 64 5 86 -13 11 -350 71 -1113 198
-628 104 -1105 188 -1117 196 -49 31 -36 55 193 376 119 167 222 306 228 310
30 21 66 8 97 -34 49 -69 134 -226 175 -327 24 -58 47 -97 59 -103 14 -6 82 1
219 24 183 31 201 35 218 59 20 26 20 26 -17 125 -79 215 -235 490 -374 661
l-50 62 265 370 c145 203 264 378 264 388 -1 41 -47 70 -82 52 -13 -7 -184
-126 -380 -266 l-357 -254 -68 54 c-154 124 -416 276 -605 351 -78 30 -109 33
-130 9 -24 -27 -86 -416 -70 -436 7 -8 72 -44 145 -80 148 -73 324 -184 311
-196 -19 -17 -644 -460 -664 -471 -26 -14 -57 -5 -74 23 -8 12 -96 515 -196
1117 -159 958 -184 1097 -202 1113 -24 20 -48 22 -72 4z"/>
</g>
</svg>
