<svg width="144" height="45" viewBox="0 0 144 45" fill="none" xmlns="http://www.w3.org/2000/svg">
<mask id="path-1-inside-1_207_33521" fill="white">
<path fill-rule="evenodd" clip-rule="evenodd" d="M43.8347 43.8633C44.5818 44.5921 45.5842 45 46.6279 45L140 45C142.209 45 144 43.2091 144 41V4C144 1.79086 142.209 0 140 0H1.99999V0C0.687882 0 0.509074 1.59858 1.4483 2.51481L43.8347 43.8633Z"/>
</mask>
<path fill-rule="evenodd" clip-rule="evenodd" d="M43.8347 43.8633C44.5818 44.5921 45.5842 45 46.6279 45L140 45C142.209 45 144 43.2091 144 41V4C144 1.79086 142.209 0 140 0H1.99999V0C0.687882 0 0.509074 1.59858 1.4483 2.51481L43.8347 43.8633Z" fill="white"/>
<path d="M140 45L140 43H140L140 45ZM1.4483 2.51481L0.0517289 3.94645L1.4483 2.51481ZM46.6279 45L46.6279 47L46.6279 45ZM43.8347 43.8633L42.4381 45.2949L43.8347 43.8633ZM140 43L46.6279 43L46.6279 47L140 47L140 43ZM142 41C142 42.1046 141.105 43 140 43V47C143.314 47 146 44.3137 146 41H142ZM142 4V41H146V4H142ZM140 2C141.105 2 142 2.89543 142 4H146C146 0.686291 143.314 -2 140 -2V2ZM1.99999 2H140V-2H1.99999V2ZM0.0517289 3.94645L42.4381 45.2949L45.2313 42.4316L2.84488 1.08318L0.0517289 3.94645ZM1.99999 -2C1.24649 -2 0.502008 -1.76093 -0.0929648 -1.23744C-0.67328 -0.726852 -0.977787 -0.0637774 -1.08929 0.564113C-1.30515 1.77961 -0.854818 3.0621 0.0517289 3.94645L2.84488 1.08318C2.8122 1.0513 2.88232 1.07637 2.84908 1.26353C2.82889 1.37724 2.7564 1.58341 2.5493 1.76563C2.32753 1.96075 2.09744 2 1.99999 2V-2ZM46.6279 43C46.106 43 45.6048 42.796 45.2313 42.4316L42.4381 45.2949C43.5588 46.3881 45.0623 47 46.6279 47L46.6279 43Z" fill="white" mask="url(#path-1-inside-1_207_33521)"/>
</svg>
