<svg width="24" height="24" viewBox="0 0 24 24" fill="none" xmlns="http://www.w3.org/2000/svg">
<mask id="path-1-inside-1" fill="white">
<path fill-rule="evenodd" clip-rule="evenodd" d="M2.47375 12.6579L8.00003 9.5L15.5 14.5L21.5263 9.76507V6.5L12 1L2.47375 6.5V12.6579Z"/>
</mask>
<path d="M8.00003 9.5L9.10943 7.8359L8.08096 7.15025L7.00776 7.76351L8.00003 9.5ZM2.47375 12.6579H0.473755V16.1042L3.46603 14.3944L2.47375 12.6579ZM15.5 14.5L14.3906 16.1641L15.5963 16.9679L16.7357 16.0726L15.5 14.5ZM21.5263 9.76507L22.762 11.3377L23.5263 10.7371V9.76507H21.5263ZM21.5263 6.5H23.5263V5.3453L22.5263 4.76795L21.5263 6.5ZM12 1L13 -0.732051L12 -1.3094L11 -0.732051L12 1ZM2.47375 6.5L1.47375 4.76795L0.473755 5.3453V6.5H2.47375ZM7.00776 7.76351L1.48148 10.9214L3.46603 14.3944L8.99231 11.2365L7.00776 7.76351ZM16.6094 12.8359L9.10943 7.8359L6.89063 11.1641L14.3906 16.1641L16.6094 12.8359ZM20.2907 8.19243L14.2644 12.9274L16.7357 16.0726L22.762 11.3377L20.2907 8.19243ZM19.5263 6.5V9.76507H23.5263V6.5H19.5263ZM11 2.73205L20.5263 8.23205L22.5263 4.76795L13 -0.732051L11 2.73205ZM3.47375 8.23205L13 2.73205L11 -0.732051L1.47375 4.76795L3.47375 8.23205ZM4.47375 12.6579V6.5H0.473755V12.6579H4.47375Z" fill="white" mask="url(#path-1-inside-1)"/>
<mask id="path-3-inside-2" fill="white">
<path fill-rule="evenodd" clip-rule="evenodd" d="M21.5263 10.7651V17.5L12 23L2.47375 17.5V13.6579L8.00004 10.5L15.5 15.5L21.5263 10.7651Z"/>
</mask>
<path d="M21.5263 10.7651H23.5263V6.65013L20.2907 9.19243L21.5263 10.7651ZM21.5263 17.5L22.5263 19.232L23.5263 18.6547V17.5H21.5263ZM12 23L11 24.732L12 25.3094L13 24.732L12 23ZM2.47375 17.5H0.473755V18.6547L1.47375 19.232L2.47375 17.5ZM2.47375 13.6579L1.48148 11.9214L0.473755 12.4972V13.6579H2.47375ZM8.00004 10.5L9.10944 8.8359L8.08097 8.15025L7.00776 8.76351L8.00004 10.5ZM15.5 15.5L14.3906 17.1641L15.5963 17.9679L16.7357 17.0726L15.5 15.5ZM19.5263 10.7651V17.5H23.5263V10.7651H19.5263ZM20.5263 15.7679L11 21.2679L13 24.732L22.5263 19.232L20.5263 15.7679ZM13 21.2679L3.47375 15.7679L1.47375 19.232L11 24.732L13 21.2679ZM4.47375 17.5V13.6579H0.473755V17.5H4.47375ZM3.46603 15.3944L8.99231 12.2365L7.00776 8.76351L1.48148 11.9214L3.46603 15.3944ZM6.89063 12.1641L14.3906 17.1641L16.6094 13.8359L9.10944 8.8359L6.89063 12.1641ZM16.7357 17.0726L22.762 12.3377L20.2907 9.19243L14.2644 13.9274L16.7357 17.0726Z" fill="white" mask="url(#path-3-inside-2)"/>
</svg>
