<svg width="36" height="36" viewBox="0 0 36 36" fill="none" xmlns="http://www.w3.org/2000/svg">
<path d="M18 1.69141C16.8516 1.69141 15.7266 1.80859 14.625 2.04297C13.5469 2.27734 12.5156 2.60547 11.5312 3.02734C11.2266 2.65234 10.8516 2.35938 10.4062 2.14844C9.98438 1.91406 9.52734 1.79688 9.03516 1.79688C8.16797 1.79688 7.41797 2.11328 6.78516 2.74609C6.17578 3.35547 5.87109 4.09375 5.87109 4.96094C5.87109 5.24219 5.90625 5.52344 5.97656 5.80469C6.07031 6.08594 6.1875 6.34375 6.32812 6.57812C5.57812 7.32812 4.89844 8.13672 4.28906 9.00391C3.70312 9.89453 3.19922 10.8438 2.77734 11.8516C2.35547 12.8359 2.02734 13.8672 1.79297 14.9453C1.58203 16.0234 1.47656 17.125 1.47656 18.25C1.47656 20.5234 1.91016 22.668 2.77734 24.6836C3.64453 26.6758 4.82812 28.4219 6.32812 29.9219C7.82812 31.4219 9.58594 32.6055 11.6016 33.4727C13.5938 34.3398 15.7266 34.7734 18 34.7734C20.2969 34.7734 22.4414 34.3398 24.4336 33.4727C26.4492 32.6055 28.1953 31.4219 29.6719 29.9219C31.1719 28.4219 32.3555 26.6758 33.2227 24.6836C34.0898 22.668 34.5234 20.5234 34.5234 18.25C34.5234 15.9766 34.0898 13.832 33.2227 11.8164C32.3555 9.82422 31.1719 8.07812 29.6719 6.57812C28.1953 5.07812 26.4492 3.88281 24.4336 2.99219C22.4414 2.125 20.3086 1.69141 18.0352 1.69141H18ZM18.0352 3.0625C20.1211 3.0625 22.0898 3.46094 23.9414 4.25781C25.793 5.05469 27.3984 6.14453 28.7578 7.52734C30.1406 8.88672 31.2305 10.4922 32.0273 12.3438C32.8242 14.1953 33.2227 16.1641 33.2227 18.25C33.2227 20.3594 32.8242 22.3398 32.0273 24.1914C31.2305 26.0195 30.1406 27.625 28.7578 29.0078C27.3984 30.3906 25.793 31.4688 23.9414 32.2422C22.0898 33.0391 20.1211 33.4375 18.0352 33.4375C15.9258 33.4375 13.9453 33.0391 12.0938 32.2422C10.2422 31.4688 8.625 30.3906 7.24219 29.0078C5.85938 27.625 4.76953 26.0195 3.97266 24.1914C3.17578 22.3398 2.77734 20.3594 2.77734 18.25C2.77734 17.2188 2.88281 16.1992 3.09375 15.1914C3.28125 14.207 3.5625 13.2695 3.9375 12.3789C4.33594 11.4648 4.81641 10.5977 5.37891 9.77734C5.91797 8.95703 6.52734 8.20703 7.20703 7.52734C7.46484 7.71484 7.74609 7.85547 8.05078 7.94922C8.35547 8.04297 8.68359 8.08984 9.03516 8.08984C9.90234 8.08984 10.6406 7.78516 11.25 7.17578C11.8594 6.56641 12.1641 5.82812 12.1641 4.96094C12.1641 4.84375 12.1523 4.72656 12.1289 4.60938C12.1289 4.49219 12.1172 4.375 12.0938 4.25781C13.0078 3.85938 13.957 3.56641 14.9414 3.37891C15.9492 3.16797 16.9688 3.0625 18 3.0625H18.0352ZM18 6.71875C16.4062 6.71875 14.8945 7.02344 13.4648 7.63281C12.0586 8.24219 10.8281 9.07422 9.77344 10.1289C8.71875 11.1836 7.88672 12.4141 7.27734 13.8203C6.66797 15.25 6.36328 16.7617 6.36328 18.3555C6.36328 19.9727 6.66797 21.4844 7.27734 22.8906C7.88672 24.2969 8.71875 25.5273 9.77344 26.582C10.8281 27.6367 12.0586 28.4688 13.4648 29.0781C14.8945 29.6875 16.4062 29.9922 18 29.9922C19.2422 29.9922 20.4258 29.8164 21.5508 29.4648C22.6758 29.0898 23.707 28.5742 24.6445 27.918C24.9023 28.0586 25.1719 28.1758 25.4531 28.2695C25.7578 28.3398 26.0625 28.375 26.3672 28.375C27.3047 28.375 28.1016 28.0469 28.7578 27.3906C29.4141 26.7344 29.7422 25.9492 29.7422 25.0352C29.7422 24.5664 29.6484 24.1445 29.4609 23.7695C29.2969 23.3711 29.0742 23.0195 28.793 22.7148C29.0742 22.0352 29.2852 21.332 29.4258 20.6055C29.5664 19.8789 29.6367 19.1289 29.6367 18.3555C29.6367 16.7617 29.332 15.25 28.7227 13.8203C28.1133 12.4141 27.2812 11.1836 26.2266 10.1289C25.1719 9.07422 23.9414 8.24219 22.5352 7.63281C21.1289 7.02344 19.6172 6.71875 18 6.71875ZM18 8.05469C19.4297 8.05469 20.7773 8.32422 22.043 8.86328C23.2852 9.40234 24.375 10.1406 25.3125 11.0781C26.25 11.9922 26.9883 13.082 27.5273 14.3477C28.0664 15.5898 28.3359 16.9258 28.3359 18.3555C28.3359 18.9883 28.2773 19.6094 28.1602 20.2188C28.0664 20.8047 27.9141 21.3789 27.7031 21.9414C27.4922 21.8477 27.2695 21.7773 27.0352 21.7305C26.8242 21.6836 26.6016 21.6602 26.3672 21.6602C25.4297 21.6602 24.6328 21.9883 23.9766 22.6445C23.3203 23.3008 22.9922 24.0977 22.9922 25.0352C22.9922 25.3867 23.0508 25.7383 23.168 26.0898C23.2852 26.418 23.4492 26.7227 23.6602 27.0039C22.8398 27.543 21.9492 27.9648 20.9883 28.2695C20.0508 28.5508 19.0547 28.6914 18 28.6914C16.5703 28.6914 15.2344 28.4219 13.9922 27.8828C12.7266 27.3438 11.625 26.6055 10.6875 25.668C9.75 24.7305 9.01172 23.6406 8.47266 22.3984C7.93359 21.1328 7.66406 19.7852 7.66406 18.3555C7.66406 16.9258 7.93359 15.5898 8.47266 14.3477C9.01172 13.082 9.75 11.9922 10.6875 11.0781C11.625 10.1406 12.7266 9.40234 13.9922 8.86328C15.2344 8.32422 16.5703 8.05469 18 8.05469ZM17.9297 9.42578C17.6719 10.5508 17.2852 11.6289 16.7695 12.6602C16.2773 13.668 15.6562 14.5469 14.9062 15.2969C14.1797 16.0234 13.3359 16.6094 12.375 17.0547C11.4141 17.5 10.3711 17.8516 9.24609 18.1094C10.3711 18.3906 11.4375 18.7773 12.4453 19.2695C13.4766 19.7617 14.3555 20.3828 15.082 21.1328C15.832 21.8828 16.4297 22.7383 16.875 23.6992C17.3203 24.6602 17.6719 25.7031 17.9297 26.8281C18.1875 25.7031 18.5391 24.6602 18.9844 23.6992C19.4297 22.7383 20.0273 21.8828 20.7773 21.1328C21.5273 20.3828 22.4062 19.7617 23.4141 19.2695C24.4219 18.7773 25.4883 18.3906 26.6133 18.1094C25.4883 17.8516 24.4453 17.5 23.4844 17.0547C22.5469 16.6094 21.7031 16.0234 20.9531 15.2969C20.2031 14.5469 19.5703 13.668 19.0547 12.6602C18.5625 11.6289 18.1875 10.5508 17.9297 9.42578ZM17.9297 15.5078C18.6562 15.5078 19.2773 15.7656 19.793 16.2812C20.3086 16.7969 20.5664 17.4062 20.5664 18.1094C20.5664 18.8359 20.3086 19.457 19.793 19.9727C19.2773 20.4883 18.6562 20.7461 17.9297 20.7461C17.2266 20.7461 16.6172 20.4883 16.1016 19.9727C15.5859 19.457 15.3281 18.8359 15.3281 18.1094C15.3281 17.4062 15.5859 16.7969 16.1016 16.2812C16.6172 15.7656 17.2266 15.5078 17.9297 15.5078Z" fill="#171D1E"/>
</svg>
