<svg width="103" height="210" viewBox="0 0 103 210" fill="none" xmlns="http://www.w3.org/2000/svg">
<path fill-rule="evenodd" clip-rule="evenodd" d="M24 26.6655C24 25.0827 25.7514 24.1271 27.0824 24.9837L79.0824 58.4489C79.6543 58.817 80 59.4506 80 60.1307V129.479C80 130.724 78.8753 131.665 77.6456 131.473C74.4214 130.971 71.6898 130.683 69.6832 130.472C68.049 130.3 66.8957 130.179 66.3487 130.033C64.8041 129.621 67.1178 126.865 69.6298 123.872C72.4141 120.556 75.4423 116.948 73.7303 115.921C70.4737 113.967 46.5921 111.362 39.6447 110.928C35.426 110.664 38.012 106.718 41.1316 101.957C43.1494 98.878 45.3905 95.4582 46.1579 92.4737C46.9053 89.5672 37.7561 87.1073 25.7012 85.1891C24.7248 85.0337 24 84.1941 24 83.2054V26.6655ZM65.0191 63.8288C65.2351 62.8425 66.6705 63.2882 66.8866 64.4087L68.2343 71.3991C68.3132 71.8082 68.6002 72.1978 68.9676 72.3945L75.2439 75.7546C76.2499 76.2932 76.2499 77.7962 75.2438 77.71L68.9676 77.1724C68.6002 77.1409 68.3132 77.3523 68.2343 77.7125L66.8866 83.8659C66.6705 84.8522 65.2351 84.4065 65.0191 83.286L63.6713 76.2956C63.5925 75.8865 63.3055 75.4969 62.9381 75.3002L56.6618 71.9401C55.6558 71.4015 55.6558 69.8985 56.6618 69.9847L62.9381 70.5223C63.3055 70.5538 63.5925 70.3424 63.6713 69.9822L65.0191 63.8288Z" fill="black"/>
</svg>
