<svg width="103" height="210" viewBox="0 0 103 210" fill="none" xmlns="http://www.w3.org/2000/svg">
<path d="M24 184.334V95.5237C24 94.3715 24.9727 93.4568 26.1222 93.5354C34.9266 94.137 41.3816 95.045 41.3816 96.3816C41.3816 98.0128 39.0742 101.195 36.6383 104.554L36.6383 104.554C33.2384 109.243 29.5881 114.277 31.6119 115.921C33.3949 117.37 43.4246 117.916 52.7014 118.42C61.4971 118.899 69.6161 119.341 69.3882 120.48C68.9793 122.525 66.5975 125.194 64.3043 127.765C61.7267 130.654 59.2611 133.418 59.8355 135.026C60.2697 136.242 64.4903 136.694 70.399 137.326C72.7972 137.582 75.4739 137.869 78.2881 138.248C79.2719 138.381 80 139.224 80 140.217V150.869C80 151.549 79.6543 152.183 79.0824 152.551L27.0824 186.016C25.7514 186.873 24 185.917 24 184.334Z" fill="black"/>
</svg>
